<svg width="30" height="30" viewBox="0 0 30 30" fill="none" xmlns="http://www.w3.org/2000/svg">
<path d="M25 14.5C25 14.1685 24.8683 13.8505 24.6339 13.6161C24.3995 13.3817 24.0815 13.25 23.75 13.25H14.2625L17.1375 10.3875C17.254 10.271 17.3465 10.1326 17.4096 9.98031C17.4726 9.82804 17.5051 9.66482 17.5051 9.5C17.5051 9.33518 17.4726 9.17197 17.4096 9.01969C17.3465 8.86741 17.254 8.72905 17.1375 8.6125C17.0209 8.49595 16.8826 8.4035 16.7303 8.34043C16.578 8.27735 16.4148 8.24489 16.25 8.24489C16.0852 8.24489 15.922 8.27735 15.7697 8.34043C15.6174 8.4035 15.479 8.49595 15.3625 8.6125L10.3625 13.6125C10.2487 13.7314 10.1595 13.8716 10.1 14.025C9.97498 14.3293 9.97498 14.6707 10.1 14.975C10.1595 15.1284 10.2487 15.2686 10.3625 15.3875L15.3625 20.3875C15.4787 20.5047 15.617 20.5977 15.7693 20.6611C15.9216 20.7246 16.085 20.7572 16.25 20.7572C16.415 20.7572 16.5784 20.7246 16.7307 20.6611C16.883 20.5977 17.0213 20.5047 17.1375 20.3875C17.2547 20.2713 17.3477 20.133 17.4111 19.9807C17.4746 19.8284 17.5072 19.665 17.5072 19.5C17.5072 19.335 17.4746 19.1716 17.4111 19.0193C17.3477 18.867 17.2547 18.7287 17.1375 18.6125L14.2625 15.75H23.75C24.0815 15.75 24.3995 15.6183 24.6339 15.3839C24.8683 15.1495 25 14.8315 25 14.5ZM21.25 2H8.75C7.75544 2 6.80161 2.39509 6.09835 3.09835C5.39509 3.80161 5 4.75544 5 5.75V23.25C5 24.2446 5.39509 25.1984 6.09835 25.9017C6.80161 26.6049 7.75544 27 8.75 27H21.25C22.2446 27 23.1984 26.6049 23.9016 25.9017C24.6049 25.1984 25 24.2446 25 23.25V19.5C25 19.1685 24.8683 18.8505 24.6339 18.6161C24.3995 18.3817 24.0815 18.25 23.75 18.25C23.4185 18.25 23.1005 18.3817 22.8661 18.6161C22.6317 18.8505 22.5 19.1685 22.5 19.5V23.25C22.5 23.5815 22.3683 23.8995 22.1339 24.1339C21.8995 24.3683 21.5815 24.5 21.25 24.5H8.75C8.41848 24.5 8.10054 24.3683 7.86612 24.1339C7.6317 23.8995 7.5 23.5815 7.5 23.25V5.75C7.5 5.41848 7.6317 5.10054 7.86612 4.86612C8.10054 4.6317 8.41848 4.5 8.75 4.5H21.25C21.5815 4.5 21.8995 4.6317 22.1339 4.86612C22.3683 5.10054 22.5 5.41848 22.5 5.75V9.5C22.5 9.83152 22.6317 10.1495 22.8661 10.3839C23.1005 10.6183 23.4185 10.75 23.75 10.75C24.0815 10.75 24.3995 10.6183 24.6339 10.3839C24.8683 10.1495 25 9.83152 25 9.5V5.75C25 4.75544 24.6049 3.80161 23.9016 3.09835C23.1984 2.39509 22.2446 2 21.25 2Z" fill="#E9E9E9"/>
</svg>
